/* XPM */
static char *hide_prelight[] = {
/* columns rows colors chars-per-pixel */
"24 24 10 1 ",
"  c #272727",
". c #2A2A2A",
"X c #2F2F2F",
"o c #323232",
"O c #373737",
"+ c #434343",
"@ c #444444",
"# c #4B4B4B",
"$ c #4C4C4C",
"% c gray77",
/* pixels */
"OOOOOOOOOOOOOOOOOOOOOOOO",
"XXXXXXXXXXXXXXXXXXXXXXXX",
"XXXXXXXXXXXXXXXXXXXXXXXX",
"XXXXXXXXXXXXXXXXXXXXXXXX",
"XXXXXXXXXXXXXXXXXXXXXXXX",
"XXXXXXXXXoX  XoXXXXXXXXX",
"XXXXXXXo.O@##@O.oXXXXXXX",
"XXXXXXo.@#$$$$#+.oXXXXXX",
"XXXXXo.@$$$$$$$$@.oXXXXX",
"XXXXXoO$$$$$$$$$#OoXXXXX",
"XXXXX.+$$$$$$$$$$+.XXXXX",
"XXXXX.#$$%%%%%%$## XXXXX",
"XXXXX.##$%%%%%%$$# XXXXX",
"XXXXX.+#$$$$$$$$#+XXXXXX",
"XXXXXoO$$$$$$$$$#OoXXXXX",
"XXXXXo.@$$$$$$$$+.XXXXXX",
"XXXXXXo.@$$#$$#@.oXXXXXX",
"XXXXXXXo O+##+O.ooXXXXXX",
"XXXXXXXXXoX  XXXXXXXXXXX",
"XXXXXXXXXXXXXXXXXXXXXXXX",
"XXXXXXXXXXXXXXXXXXXXXXXX",
"XXXXXXXXXXXXXXXXXXXXXXXX",
"XXXXXXXXXXXXXXXXXXXXXXXX",
"XXXXXXXXXXXXXXXXXXXXXXXX"
};
