/* XPM */
static char *maximize_pressed[] = {
/* columns rows colors chars-per-pixel */
"24 24 19 1 ",
"  c #2A2A2A",
". c #2F2F2F",
"X c #323232",
"o c #373737",
"O c gray22",
"+ c gray26",
"@ c #444444",
"# c #555555",
"$ c #565656",
"% c #7B7B7B",
"& c gray50",
"* c #8E8E8E",
"= c gray58",
"- c #979797",
"; c #DADADA",
": c #DDDDDD",
"> c gray88",
", c #EAEAEA",
"< c white",
/* pixels */
"oooooooooooooooooooooooo",
"........................",
"........................",
"........................",
".........X..............",
"........o+o  O+o........",
".......+.$%*=%$.+.......",
"......+X&======&X+......",
".....o.&========&.X.....",
".....+$====:<<,==$+.....",
".....o&===--:<<==%o.....",
"..... *==:-==;<=== .....",
"..... *==<>===:==* .....",
"....XO&=-<<;-====%o.....",
".....O#*=,<<:====$+.....",
".....o.*========&.o.....",
"......+X&======&X+......",
".......+.$%**%$.+.......",
"........o+O  o+o........",
"..........X...X.........",
"........................",
"........................",
"........................",
"........................"
};
