/* XPM */
static char *maximize_inactive[] = {
/* columns rows colors chars-per-pixel */
"24 24 8 1 ",
"  c #2F2F2F",
". c gray19",
"X c #373737",
"o c #535353",
"O c #565656",
"+ c #5B5B5B",
"@ c gray36",
"# c gray40",
/* pixels */
"XXXXXXXXXXXXXXXXXXXXXXXX",
"                        ",
"                        ",
"                        ",
"                        ",
"                        ",
"                        ",
"                        ",
"                        ",
"           O##+         ",
"         . .o##         ",
"        .O.. o#         ",
"        .#O.  o         ",
"        .##o. .         ",
"         @##O.          ",
"                        ",
"                        ",
"                        ",
"                        ",
"                        ",
"                        ",
"                        ",
"                        ",
"                        "
};
