/* XPM */
static char *menu_active[] = {
/* columns rows colors chars-per-pixel */
"24 24 13 1 ",
"  c #2F2F2F",
". c #373737",
"X c #3C3C3C",
"o c #4B4B4B",
"O c #555555",
"+ c #585858",
"@ c #646464",
"# c gray43",
"$ c #717171",
"% c #7C7C7C",
"& c #838383",
"* c #8B8B8B",
"= c #909090",
/* pixels */
"........................",
"                        ",
"                        ",
"                        ",
"                        ",
"                        ",
"                        ",
"                        ",
"                        ",
"                        ",
"        &%o  o%&        ",
"        #=*@@*=#        ",
"         O&==&+         ",
"          X$$X          ",
"                        ",
"                        ",
"                        ",
"                        ",
"                        ",
"                        ",
"                        ",
"                        ",
"                        ",
"                        "
};
