/* XPM */
static char *menu_pressed[] = {
/* columns rows colors chars-per-pixel */
"24 24 21 1 ",
"  c #2A2A2A",
". c #2F2F2F",
"X c #323232",
"o c #373737",
"O c gray22",
"+ c gray26",
"@ c #565656",
"# c #7B7B7B",
"$ c gray50",
"% c #8E8E8E",
"& c gray58",
"* c #959595",
"= c gray62",
"- c #B1B1B1",
"; c gray74",
": c #C8C8C8",
"> c gray88",
", c gray89",
"< c gray96",
"1 c gray99",
"2 c #FEFEFE",
/* pixels */
"oooooooooooooooooooooooo",
"........................",
"........................",
"........................",
".........X..............",
"........o+o  O+o........",
".......+.@#%&#@.+.......",
"......+X$&&&&&&$X+......",
".....o.$&&&&&&&&$.o.....",
".....+@&&&&&&&&&&@+.....",
".....o$&:2:&&:2:&$O.....",
"..... %&;22,,22;&% .....",
"..... %&&-<22<-&&% .....",
".....o$&&&=,,=&&&#O.....",
".....+@%&&&&&&&&&@+.....",
".....o %&&&&&&&&$.o.....",
"......+X$&&&&&&$X+......",
".......+.@#%%#@.+.......",
"........o+o  o+o........",
"..........X.............",
"........................",
"........................",
"........................",
"........................"
};
