/* XPM */
static char *menu_inactive[] = {
/* columns rows colors chars-per-pixel */
"24 24 11 1 ",
"  c #2F2F2F",
". c #373737",
"X c #3F3F3F",
"o c gray28",
"O c gray30",
"+ c gray32",
"@ c #555555",
"# c #5A5A5A",
"$ c gray37",
"% c gray39",
"& c #676767",
/* pixels */
"........................",
"                        ",
"                        ",
"                        ",
"                        ",
"                        ",
"                        ",
"                        ",
"                        ",
"                        ",
"        $#X  X#$        ",
"        +&%OO%&+        ",
"         o$&&$o         ",
"          .@@.          ",
"                        ",
"                        ",
"                        ",
"                        ",
"                        ",
"                        ",
"                        ",
"                        ",
"                        ",
"                        "
};
