/* XPM */
static char *menu_prelight[] = {
/* columns rows colors chars-per-pixel */
"24 24 34 1",
". c #373737",
"  c #2F2F2F",
"@ c #313131",
"# c #323232",
"$ c #2C2C2C",
"% c #272727",
"& c #333333",
"* c #292929",
"= c #454545",
"- c #4B4B4B",
"; c #363636",
"> c #2A2A2A",
", c #464646",
"' c #4C4C4C",
") c #2B2B2B",
"! c #444444",
"~ c #B4B4B4",
"{ c #AAAAAA",
"] c #6E6E6E",
"^ c #434343",
"/ c #4A4A4A",
"( c #9B9B9B",
"_ c #C3C3C3",
": c #BFBFBF",
"< c #8E8E8E",
"[ c #282828",
"} c #7A7A7A",
"| c #B2B2B2",
"1 c #C4C4C4",
"2 c #7D7D7D",
"3 c #5A5A5A",
"4 c #9C9C9C",
"5 c #303030",
"6 c #2D2D2D",
/* pixels */
"........................",
"                        ",
"                        ",
"                        ",
"                        ",
"        @#$%%$#@        ",
"       &*.=--=;*&       ",
"      &>,''''''=)&      ",
"     @*,''''''''=*#     ",
"     #.'''''''''';@     ",
"     $!'~{]'']{~'^$     ",
"     %/'(_:<<:_('/[     ",
"     [/''}|11~2''/[     ",
"     $!'''3443'''^$     ",
"     #;'''''''''';@     ",
"     @*=''''''''=*5     ",
"      &>=''''''=)#      ",
"       &*;^//!;*#       ",
"        #@6%%6@5        ",
"                        ",
"                        ",
"                        ",
"                        ",
"                        "
};
