/* XPM */
static char *shade_inactive[] = {
/* columns rows colors chars-per-pixel */
"24 24 7 1",
". c #373737",
"  c #2F2F2F",
"@ c #4C4C4C",
"# c #656565",
"$ c #666666",
"% c #646464",
"& c #4A4A4A",
/* pixels */
"........................",
"                        ",
"                        ",
"                        ",
"                        ",
"                        ",
"                        ",
"                        ",
"        @#$$$$#@        ",
"        #$$$$$ %        ",
"        $$$$$$$$        ",
"           &@           ",
"          &$$@          ",
"         &$$$$@         ",
"           $$           ",
"           $$           ",
"                        ",
"                        ",
"                        ",
"                        ",
"                        ",
"                        ",
"                        ",
"                        "
};
