/* XPM */
static char *shade_toggled_active[] = {
/* columns rows colors chars-per-pixel */
"24 24 8 1",
". c #373737",
"  c #2F2F2F",
"@ c #303030",
"# c #636363",
"$ c #8E8E8E",
"% c #909090",
"& c #626262",
"* c #8D8D8D",
/* pixels */
"........................",
"                        ",
"                        ",
"                        ",
"                        ",
"                        ",
"                        ",
"           @@           ",
"        #$%%%%$&        ",
"        $%%%%% *        ",
"        %%%%%%%%        ",
"        %%    %%        ",
"        %%    %%        ",
"        %%    %%        ",
"        %%%%%%%%        ",
"        %%%%%%%%        ",
"                        ",
"                        ",
"                        ",
"                        ",
"                        ",
"                        ",
"                        ",
"                        "
};
