/* XPM */
static char *shade_prelight[] = {
/* columns rows colors chars-per-pixel */
"24 24 26 1",
". c #373737",
"  c #2F2F2F",
"@ c #313131",
"# c #323232",
"$ c #2C2C2C",
"% c #272727",
"& c #333333",
"* c #292929",
"= c #454545",
"- c #4B4B4B",
"; c #363636",
"> c #2A2A2A",
", c #464646",
"' c #4C4C4C",
") c #2B2B2B",
"! c #8C8C8C",
"~ c #C1C1C1",
"{ c #C4C4C4",
"] c #8B8B8B",
"^ c #444444",
"/ c #434343",
"( c #4A4A4A",
"_ c #888888",
": c #282828",
"< c #303030",
"[ c #2D2D2D",
/* pixels */
"........................",
"                        ",
"                        ",
"                        ",
"                        ",
"        @#$%%$#@        ",
"       &*.=--=;*&       ",
"      &>,''''''=)&      ",
"     @*,!~{{{{~]=*#     ",
"     #.'~{{{{{'~';@     ",
"     $^'{{{{{{{{'/$     ",
"     %(''''_!''''(:     ",
"     :('''_{{!'''(:     ",
"     $^''_{{{{!''/$     ",
"     #;''''{{'''';@     ",
"     @*='''{{'''=*<     ",
"      &>=''''''=)#      ",
"       &*;/((^;*#       ",
"        #@[%%[@<        ",
"                        ",
"                        ",
"                        ",
"                        ",
"                        "
};
