/* XPM */
static char *stick_toggled_prelight[] = {
/* columns rows colors chars-per-pixel */
"24 24 49 1",
". c #373737",
"  c #2F2F2F",
"@ c #313131",
"# c #323232",
"$ c #2C2C2C",
"% c #272727",
"& c #333333",
"* c #292929",
"= c #454545",
"- c #4B4B4B",
"; c #363636",
"> c #A3A3A3",
", c #555555",
"' c #4C4C4C",
") c #565656",
"! c #9C9C9C",
"~ c #2B2B2B",
"{ c #4E4E4E",
"] c #ACACAC",
"^ c #B0B0B0",
"/ c #707070",
"( c #BABABA",
"_ c #C4C4C4",
": c #686868",
"< c #AFAFAF",
"[ c #6A6A6A",
"} c #BBBBBB",
"| c #444444",
"1 c #BCBCBC",
"2 c #6B6B6B",
"3 c #AEAEAE",
"4 c #B1B1B1",
"5 c #434343",
"6 c #4A4A4A",
"7 c #9F9F9F",
"8 c #898989",
"9 c #6E6E6E",
"0 c #383838",
"a c #282828",
"b c #696969",
"c c #888888",
"d c #606060",
"e c #747474",
"f c #929292",
"g c #A5A5A5",
"h c #5B5B5B",
"i c #303030",
"j c #2A2A2A",
"k c #2D2D2D",
/* pixels */
"........................",
"                        ",
"                        ",
"                        ",
"                        ",
"        @#$%%$#@        ",
"       &*.=--=;*&       ",
"      &=>,'')!'=~&      ",
"     @*{]^,/(_''=*#     ",
"     #.':<^[}_''';@     ",
"     $|'1234[}'''5$     ",
"     %6'_}:<^[^7890     ",
"     a6'__1234,''6a     ",
"     $|'___}b<<,'5$     ",
"     #;'4cde^b]<,;@     ",
"     @*='''')f,gh*i     ",
"      &j=''''''=~#      ",
"       &*;566|;*#       ",
"        #@k%%k@i        ",
"                        ",
"                        ",
"                        ",
"                        ",
"                        "
};
