/* XPM */
static char *stick_toggled_pressed[] = {
/* columns rows colors chars-per-pixel */
"24 24 40 1",
". c #373737",
"  c #2F2F2F",
"@ c #383838",
"# c #646464",
"$ c #818181",
"% c #909090",
"& c #636363",
"* c #515151",
"= c #8E8E8E",
"- c #949494",
"; c #A6A6A6",
"> c #E3E3E3",
", c #9C9C9C",
"' c #9D9D9D",
") c #DBDBDB",
"! c #939393",
"~ c #9B9B9B",
"{ c #EAEAEA",
"] c #EEEEEE",
"^ c #B4B4B4",
"/ c #F6F6F6",
"( c #FFFFFF",
"_ c #8F8F8F",
": c #ADADAD",
"< c #ECECEC",
"[ c #AEAEAE",
"} c #F7F7F7",
"| c #626262",
"1 c #828282",
"2 c #F8F8F8",
"3 c #AFAFAF",
"4 c #EDEDED",
"5 c #DEDEDE",
"6 c #CACACA",
"7 c #B3B3B3",
"8 c #9A9A9A",
"9 c #B8B8B8",
"0 c #D3D3D3",
"a c #505050",
"b c #808080",
/* pixels */
"........................",
"                        ",
"                        ",
"                        ",
"                        ",
"        @#$%%$&@        ",
"       *=------=*       ",
"      *;>,--')--!*      ",
"     @=~{],^/(---_@     ",
"     #--:<][}(----|     ",
"     1--23<][}----$     ",
"     _--(}:<][45678     ",
"     =--((23<],---_     ",
"     $--(((}[<<,--$     ",
"     &--46;9][{<,-|     ",
"     @=-----'0,>;=.     ",
"      *!--------!a      ",
"       *_------=a       ",
"        @|b__b|.        ",
"                        ",
"                        ",
"                        ",
"                        ",
"                        "
};
