<?xml version="1.0" standalone="no"?>
<!DOCTYPE svg PUBLIC "-//W3C//DTD SVG 20010904//EN"
 "http://www.w3.org/TR/2001/REC-SVG-20010904/DTD/svg10.dtd">
<svg version="1.0" xmlns="http://www.w3.org/2000/svg"
 width="128.000000pt" height="128.000000pt" viewBox="0 0 128.000000 128.000000"
 preserveAspectRatio="xMidYMid meet">
<metadata>
Created by potrace 1.13, written by Peter Selinger 2001-2015
</metadata>
<g transform="translate(0.000000,128.000000) scale(0.100000,-0.100000)"
fill="#000000" stroke="none">
<path d="M1125 1265 c-90 -17 -151 -38 -250 -87 -65 -33 -99 -60 -181 -142
-55 -55 -146 -156 -203 -223 l-102 -123 -117 0 -117 0 -52 -79 -52 -79 89 -23
c49 -13 92 -29 95 -37 3 -7 -2 -29 -10 -48 -13 -31 -13 -39 0 -63 19 -38 96
-116 133 -135 27 -14 33 -14 71 1 25 10 45 13 50 7 4 -5 18 -48 31 -96 l22
-86 79 51 79 52 0 121 0 121 133 109 c345 284 426 409 453 702 l7 72 -44 -1
c-24 0 -75 -7 -114 -14z m-166 -269 c54 -29 67 -105 25 -155 -48 -58 -135 -47
-170 20 -46 90 53 182 145 135z"/>
<path d="M103 338 c-59 -61 -103 -188 -103 -294 l0 -44 44 0 c109 0 239 47
297 106 46 48 28 63 -37 30 -51 -25 -135 -46 -184 -46 -27 0 -30 3 -30 30 0
49 21 132 46 183 36 72 19 89 -33 35z"/>
</g>
</svg>
